<?xml version="1.0" encoding="iso-8859-1"?>
<!-- Generator: Adobe Illustrator 25.4.1, SVG Export Plug-In . SVG Version: 6.00 Build 0)  -->
<svg xmlns="http://www.w3.org/2000/svg" xmlns:xlink="http://www.w3.org/1999/xlink" x="0px" y="0px"
	 viewBox="0 0 64 64" style="enable-background:new 0 0 64 64;" xml:space="preserve">
<path style="fill-rule:evenodd;clip-rule:evenodd;" d="M50,22.5c0.5,1,0,2-1.107,2.232L47.5,25v24c-1,1-2.5,1.5-4,1.5
	c-1.749,0-2.256-0.9-3.565-2.529L29,31v16l4,1c0,0,0,1.5-2.5,2l-8,0.5c0-0.5-0.5-1.5,1.5-2l1-0.5V27l-2.656-0.313
	c-0.22-0.979,0.318-2.307,1.857-2.499L32,23.5l11.5,17v-15l-3-0.5c0-1,0.859-1.804,2.5-2L50,22.5z"/>
<path style="fill-rule:evenodd;clip-rule:evenodd;" d="M56.807,12.729L46.841,5.76c-2.409-1.74-3.395-1.959-7.229-1.633L8.395,6.415
	C5.877,6.631,5,8.265,5,10.223v33.97c0,1.525,0.547,2.83,1.862,4.573l7.338,9.472c1.205,1.524,2.301,1.851,4.603,1.742l36.254-2.179
	C58.123,57.586,59,56.169,59,53.775V15.559C59,14.252,58.451,13.927,56.807,12.729z M13.536,13.744l-4.323-3.418
	C8.771,9.884,8.993,9.333,10.1,9.224l30.372-2.203c2.548-0.22,3.878,0.662,4.876,1.433l5.209,3.747
	c0.221,0.11,0.775,0.77,0.109,0.77l-31.367,1.874C15.972,15.067,15.307,15.176,13.536,13.744z M55,51.304
	c0,1.416-0.22,2.617-2.187,2.724L18.84,55.989C16.873,56.096,16,55.443,16,53.7V21.257c0-1.415,0.438-2.07,1.749-2.178l35.502-2.068
	C54.454,16.901,55,17.665,55,19.078V51.304z"/>
</svg>